<svg width="50" height="39" viewBox="0 0 50 39" fill="none" xmlns="http://www.w3.org/2000/svg">
<rect width="50" height="39" fill="#F5F5F5"/>
<g filter="url(#filter0_d_0_1)">
<circle cx="24" cy="19" r="31" fill="#FFF2E7"/>
</g>
<path d="M8.36364 31.2841C7.03788 31.2841 5.83712 30.9432 4.76136 30.2614C3.69318 29.572 2.8447 28.5606 2.21591 27.2273C1.5947 25.8864 1.28409 24.2424 1.28409 22.2955C1.28409 20.2955 1.60606 18.6326 2.25 17.3068C2.89394 15.9735 3.75 14.9773 4.81818 14.3182C5.89394 13.6515 7.07197 13.3182 8.35227 13.3182C9.32955 13.3182 10.1439 13.4848 10.7955 13.8182C11.4545 14.1439 11.9848 14.553 12.3864 15.0455C12.7955 15.5303 13.1061 16.0076 13.3182 16.4773H13.4659V7.72727H18.2955V31H13.5227V28.2045H13.3182C13.0909 28.6894 12.7689 29.1705 12.3523 29.6477C11.9432 30.1174 11.4091 30.5076 10.75 30.8182C10.0985 31.1288 9.30303 31.2841 8.36364 31.2841ZM9.89773 27.4318C10.678 27.4318 11.3371 27.2197 11.875 26.7955C12.4205 26.3636 12.8371 25.7614 13.125 24.9886C13.4205 24.2159 13.5682 23.3106 13.5682 22.2727C13.5682 21.2348 13.4242 20.3333 13.1364 19.5682C12.8485 18.803 12.4318 18.2121 11.8864 17.7955C11.3409 17.3788 10.678 17.1705 9.89773 17.1705C9.10227 17.1705 8.43182 17.3864 7.88636 17.8182C7.34091 18.25 6.92803 18.8485 6.64773 19.6136C6.36742 20.3788 6.22727 21.2652 6.22727 22.2727C6.22727 23.2879 6.36742 24.1856 6.64773 24.9659C6.93561 25.7386 7.34848 26.3447 7.88636 26.7841C8.43182 27.2159 9.10227 27.4318 9.89773 27.4318ZM22.2756 31V13.5455H27.1165V31H22.2756ZM24.7074 11.2955C23.9877 11.2955 23.3703 11.0568 22.8551 10.5795C22.3475 10.0947 22.0938 9.51515 22.0938 8.84091C22.0938 8.17424 22.3475 7.60227 22.8551 7.125C23.3703 6.64015 23.9877 6.39773 24.7074 6.39773C25.4271 6.39773 26.0407 6.64015 26.5483 7.125C27.0634 7.60227 27.321 8.17424 27.321 8.84091C27.321 9.51515 27.0634 10.0947 26.5483 10.5795C26.0407 11.0568 25.4271 11.2955 24.7074 11.2955ZM31.0852 31V7.72727H35.9261V16.4773H36.0739C36.286 16.0076 36.5928 15.5303 36.9943 15.0455C37.4034 14.553 37.9337 14.1439 38.5852 13.8182C39.2443 13.4848 40.0625 13.3182 41.0398 13.3182C42.3125 13.3182 43.4867 13.6515 44.5625 14.3182C45.6383 14.9773 46.4981 15.9735 47.142 17.3068C47.786 18.6326 48.108 20.2955 48.108 22.2955C48.108 24.2424 47.7936 25.8864 47.1648 27.2273C46.5436 28.5606 45.6951 29.572 44.6193 30.2614C43.5511 30.9432 42.3542 31.2841 41.0284 31.2841C40.089 31.2841 39.2898 31.1288 38.6307 30.8182C37.9792 30.5076 37.4451 30.1174 37.0284 29.6477C36.6117 29.1705 36.2936 28.6894 36.0739 28.2045H35.858V31H31.0852ZM35.8239 22.2727C35.8239 23.3106 35.9678 24.2159 36.2557 24.9886C36.5436 25.7614 36.9602 26.3636 37.5057 26.7955C38.0511 27.2197 38.714 27.4318 39.4943 27.4318C40.2822 27.4318 40.9489 27.2159 41.4943 26.7841C42.0398 26.3447 42.4527 25.7386 42.733 24.9659C43.0208 24.1856 43.1648 23.2879 43.1648 22.2727C43.1648 21.2652 43.0246 20.3788 42.7443 19.6136C42.464 18.8485 42.0511 18.25 41.5057 17.8182C40.9602 17.3864 40.2898 17.1705 39.4943 17.1705C38.7064 17.1705 38.0398 17.3788 37.4943 17.7955C36.9564 18.2121 36.5436 18.803 36.2557 19.5682C35.9678 20.3333 35.8239 21.2348 35.8239 22.2727Z" fill="black"/>
<defs>
<filter id="filter0_d_0_1" x="-11" y="-12" width="70" height="70" filterUnits="userSpaceOnUse" color-interpolation-filters="sRGB">
<feFlood flood-opacity="0" result="BackgroundImageFix"/>
<feColorMatrix in="SourceAlpha" type="matrix" values="0 0 0 0 0 0 0 0 0 0 0 0 0 0 0 0 0 0 127 0" result="hardAlpha"/>
<feOffset dy="4"/>
<feGaussianBlur stdDeviation="2"/>
<feComposite in2="hardAlpha" operator="out"/>
<feColorMatrix type="matrix" values="0 0 0 0 0 0 0 0 0 0 0 0 0 0 0 0 0 0 0.25 0"/>
<feBlend mode="normal" in2="BackgroundImageFix" result="effect1_dropShadow_0_1"/>
<feBlend mode="normal" in="SourceGraphic" in2="effect1_dropShadow_0_1" result="shape"/>
</filter>
</defs>
</svg>
