<svg width="142" height="75" viewBox="0 0 142 75" fill="none" xmlns="http://www.w3.org/2000/svg">
<path d="M22.0909 74.8523C18.1136 74.8523 14.5114 73.8295 11.2841 71.7841C8.07955 69.7159 5.53409 66.6818 3.64773 62.6818C1.78409 58.6591 0.852273 53.7273 0.852273 47.8864C0.852273 41.8864 1.81818 36.8977 3.75 32.9205C5.68182 28.9205 8.25 25.9318 11.4545 23.9545C14.6818 21.9545 18.2159 20.9545 22.0568 20.9545C24.9886 20.9545 27.4318 21.4545 29.3864 22.4545C31.3636 23.4318 32.9545 24.6591 34.1591 26.1364C35.3864 27.5909 36.3182 29.0227 36.9545 30.4318H37.3977V4.18182H51.8864V74H37.5682V65.6136H36.9545C36.2727 67.0682 35.3068 68.5114 34.0568 69.9432C32.8295 71.3523 31.2273 72.5227 29.25 73.4545C27.2955 74.3864 24.9091 74.8523 22.0909 74.8523ZM26.6932 63.2955C29.0341 63.2955 31.0114 62.6591 32.625 61.3864C34.2614 60.0909 35.5114 58.2841 36.375 55.9659C37.2614 53.6477 37.7045 50.9318 37.7045 47.8182C37.7045 44.7045 37.2727 42 36.4091 39.7045C35.5455 37.4091 34.2955 35.6364 32.6591 34.3864C31.0227 33.1364 29.0341 32.5114 26.6932 32.5114C24.3068 32.5114 22.2955 33.1591 20.6591 34.4545C19.0227 35.75 17.7841 37.5455 16.9432 39.8409C16.1023 42.1364 15.6818 44.7955 15.6818 47.8182C15.6818 50.8636 16.1023 53.5568 16.9432 55.8977C17.8068 58.2159 19.0455 60.0341 20.6591 61.3523C22.2955 62.6477 24.3068 63.2955 26.6932 63.2955ZM63.8267 74V21.6364H78.3494V74H63.8267ZM71.1222 14.8864C68.9631 14.8864 67.1108 14.1705 65.5653 12.7386C64.0426 11.2841 63.2812 9.54545 63.2812 7.52272C63.2812 5.52272 64.0426 3.80682 65.5653 2.375C67.1108 0.920452 68.9631 0.193178 71.1222 0.193178C73.2813 0.193178 75.1222 0.920452 76.6449 2.375C78.1903 3.80682 78.9631 5.52272 78.9631 7.52272C78.9631 9.54545 78.1903 11.2841 76.6449 12.7386C75.1222 14.1705 73.2813 14.8864 71.1222 14.8864ZM90.2557 74V4.18182H104.778V30.4318H105.222C105.858 29.0227 106.778 27.5909 107.983 26.1364C109.21 24.6591 110.801 23.4318 112.756 22.4545C114.733 21.4545 117.188 20.9545 120.119 20.9545C123.938 20.9545 127.46 21.9545 130.688 23.9545C133.915 25.9318 136.494 28.9205 138.426 32.9205C140.358 36.8977 141.324 41.8864 141.324 47.8864C141.324 53.7273 140.381 58.6591 138.494 62.6818C136.631 66.6818 134.085 69.7159 130.858 71.7841C127.653 73.8295 124.063 74.8523 120.085 74.8523C117.267 74.8523 114.869 74.3864 112.892 73.4545C110.938 72.5227 109.335 71.3523 108.085 69.9432C106.835 68.5114 105.881 67.0682 105.222 65.6136H104.574V74H90.2557ZM104.472 47.8182C104.472 50.9318 104.903 53.6477 105.767 55.9659C106.631 58.2841 107.881 60.0909 109.517 61.3864C111.153 62.6591 113.142 63.2955 115.483 63.2955C117.847 63.2955 119.847 62.6477 121.483 61.3523C123.119 60.0341 124.358 58.2159 125.199 55.8977C126.063 53.5568 126.494 50.8636 126.494 47.8182C126.494 44.7955 126.074 42.1364 125.233 39.8409C124.392 37.5455 123.153 35.75 121.517 34.4545C119.881 33.1591 117.869 32.5114 115.483 32.5114C113.119 32.5114 111.119 33.1364 109.483 34.3864C107.869 35.6364 106.631 37.4091 105.767 39.7045C104.903 42 104.472 44.7045 104.472 47.8182Z" fill="#FFF2E7"/>
</svg>
